<?xml version="1.0" encoding="iso-8859-1"?>
<!-- Generator: Adobe Illustrator 25.0.0, SVG Export Plug-In . SVG Version: 6.00 Build 0)  -->
<svg version="1.1" id="Head" xmlns="http://www.w3.org/2000/svg" xmlns:xlink="http://www.w3.org/1999/xlink" x="0px" y="0px"
	 viewBox="0 0 800 600" style="enable-background:new 0 0 800 600;" xml:space="preserve">

	<g id="_x2B_Tail">
	<g id="_x31_">
		<linearGradient id="SVGID_1_" gradientUnits="userSpaceOnUse" x1="230.3478" y1="331.6088" x2="287.7448" y2="331.6088">
			<stop  offset="0.1164" style="stop-color:#F15A29"/>
			<stop  offset="0.8985" style="stop-color:#BE1E2D"/>
		</linearGradient>
		<path style="fill:url(#SVGID_1_);" d="M242.166,286.085c-2.991,0-5.158,0.023-7.988,0.573c-1.75,6.523-1.726,16.166-1.726,16.166
			l6.684,3.391l-6.871,0.589c0,0-2.324,6.222-1.853,12.971c0.471,6.749,1.256,11.143,1.256,11.143l11.457,1.569l-11.3,2.982
			c0,0,0.314,4.238,1.726,12.556c1.311,7.722,3.1,9.989,3.1,9.989l11.123,1.203l-9.226,2.945c0,0,2.945,10.797,6.647,14.97
			c23.76-1.56,42.552-21.314,42.552-45.468C287.745,306.492,267.338,286.085,242.166,286.085z"/>
	</g>
	<linearGradient id="_x32__2_" gradientUnits="userSpaceOnUse" x1="234.6057" y1="331.6131" x2="291.0972" y2="331.6131">
		<stop  offset="0.1164" style="stop-color:#F15A29"/>
		<stop  offset="0.8985" style="stop-color:#BE1E2D"/>
	</linearGradient>
	<path id="_x32_" style="fill:url(#_x32__2_);" d="M245.688,286.427c-2.306-0.006-3.967,0.013-6.133,0.55
		c-1.076,6.429-1.326,15.996-1.34,15.998c1.862,1.124,3.754,2.249,5.675,3.373c-1.986,0.192-3.978,0.385-5.977,0.578
		c0.023-0.001-2.309,6.178-2.567,12.9c-0.22,6.72-0.058,11.1-0.048,11.1c3.692,0.521,7.41,1.041,11.156,1.561
		c-3.814,0.991-7.687,1.982-11.618,2.974c-0.008-0.001-0.258,4.224-0.228,12.503c-0.006,7.682,1.486,9.926,1.502,9.928
		c4.05,0.392,8.12,0.783,12.21,1.174c-3.588,0.979-7.225,1.959-10.91,2.939c0.025,0.004,1.072,10.698,4.59,14.796
		c29.819-1.606,52.828-21.13,48.594-45.141C286.185,306.631,263.996,286.467,245.688,286.427z"/>
	<linearGradient id="_x33__2_" gradientUnits="userSpaceOnUse" x1="234.608" y1="332.6973" x2="291.0972" y2="332.6973">
		<stop  offset="0.1164" style="stop-color:#F15A29"/>
		<stop  offset="0.8985" style="stop-color:#BE1E2D"/>
	</linearGradient>
	<path id="_x33_" style="fill:url(#_x33__2_);" d="M249.25,289.25c-2.306-0.006-5.084-1.037-7.25-0.5
		c-1.076,6.429,0.774,14.736,0.76,14.738c1.862,1.124,3.754,2.249,5.675,3.373c-1.986,0.192-3.978,0.385-5.977,0.578
		c0.023-0.001-2.309,6.178-2.567,12.9c-0.22,6.72-0.058,11.1-0.048,11.1c3.692,0.521,7.41,1.041,11.156,1.561
		c-3.814,0.991-7.687,1.982-11.618,2.974c-0.008-0.001-4.803,3.711-4.774,11.989c-0.006,7.682,1.486,9.926,1.502,9.928
		c4.05,0.392,8.12,0.783,12.21,1.174c-3.588,0.979-7.225,1.959-10.91,2.939c0.025,0.004,1.072,10.698,4.59,14.796
		c29.819-1.606,52.828-21.13,48.594-45.141C286.185,306.631,267.558,289.29,249.25,289.25z"/>
	
		<linearGradient id="_x34__2_" gradientUnits="userSpaceOnUse" x1="240.6524" y1="329.2488" x2="291.8769" y2="329.2488" gradientTransform="matrix(0.9968 -0.0804 0.0804 0.9968 -25.8764 22.41)">
		<stop  offset="0.1164" style="stop-color:#F15A29"/>
		<stop  offset="0.8985" style="stop-color:#BE1E2D"/>
	</linearGradient>
	<path id="_x34_" style="fill:url(#_x34__2_);" d="M246.311,287.195c-2.299,0.18-5.151-0.625-7.267,0.084
		c-0.556,6.495,1.956,14.627,1.942,14.629c1.947,0.971,3.923,1.94,5.928,2.906c-1.964,0.351-3.934,0.703-5.911,1.056
		c0.023-0.002-1.805,6.344-1.523,13.064c0.321,6.716,2.651,12.991,2.661,12.989c3.722,0.222,5.653-1.479,9.429-1.262
		c-3.722,1.294-6.117,2.759-9.956,4.063c-0.008,0,0.418,2.446,1.113,10.695c0.611,7.658,1.602,10.229,1.617,10.229
		c4.068,0.065,8.156,0.128,12.265,0.189c-3.498,1.265-7.044,2.533-10.638,3.806c0.026,0.002-3.688,11.596,0.147,15.399
		c29.593-3.997,50.959-25.307,44.809-48.9C284.524,301.552,264.563,285.764,246.311,287.195z"/>
	
		<linearGradient id="_x35__2_" gradientUnits="userSpaceOnUse" x1="231.7612" y1="336.7466" x2="288.2505" y2="336.7466" gradientTransform="matrix(0.9851 -0.1718 -0.1718 -0.9851 61.0799 705.614)">
		<stop  offset="0.1164" style="stop-color:#F15A29"/>
		<stop  offset="0.8985" style="stop-color:#BE1E2D"/>
	</linearGradient>
	<path id="_x35_" style="fill:url(#_x35__2_);" d="M253.418,374.336c-2.27,0.402-4.83,1.895-7.056,1.738
		c-2.165-6.148-1.77-14.65-1.784-14.65c1.641-1.428,3.312-2.861,5.011-4.299c-1.989,0.152-3.985,0.304-5.987,0.458
		c0.023-0.003-3.336-5.69-4.746-12.267c-1.371-6.583-1.965-10.925-1.954-10.927c3.547-1.147,7.121-2.299,10.722-3.455
		c-3.927-0.321-7.913-0.632-11.956-0.933c-0.008,0.002-5.37-2.83-6.763-10.991c-1.326-7.567-0.242-10.034-0.227-10.038
		c3.922-1.082,7.864-2.167,11.827-3.255c-3.703-0.348-7.454-0.688-11.252-1.02c0.024-0.009-0.782-10.723,1.979-15.365
		c29.651-3.542,55.673,11.738,55.628,36.119C286.817,350.866,271.447,371.151,253.418,374.336z"/>
	
		<linearGradient id="_x36__2_" gradientUnits="userSpaceOnUse" x1="234.2243" y1="332.6639" x2="290.7159" y2="332.6639" gradientTransform="matrix(0.9934 -0.1151 -0.1151 -0.9934 39.9181 691.2778)">
		<stop  offset="0.1164" style="stop-color:#F15A29"/>
		<stop  offset="0.8985" style="stop-color:#BE1E2D"/>
	</linearGradient>
	<path id="_x36_" style="fill:url(#_x36__2_);" d="M250.504,377.474c-2.29,0.271-3.942,0.444-6.156,0.16
		c-1.809-6.262-3.159-15.737-3.173-15.737c1.721-1.331,3.47-2.666,5.249-4.004c-1.995,0.037-3.996,0.076-6.004,0.114
		c0.023-0.002-3.005-5.871-4.035-12.518c-0.992-6.65-1.335-11.02-1.325-11.021c3.607-0.942,7.241-1.887,10.903-2.835
		c-3.903-0.545-7.864-1.084-11.883-1.617c-0.008,0.002-0.743-4.167-1.666-12.393c-0.89-7.63,0.334-10.031,0.349-10.034
		c3.978-0.855,7.975-1.712,11.994-2.572c-3.677-0.56-7.402-1.114-11.175-1.664c0.025-0.007-0.166-10.75,2.856-15.226
		c29.805-1.837,54.909,14.909,53.467,39.247C288.406,352.743,268.685,375.327,250.504,377.474z"/>
</g>
<g id="_x2B_Hair_3">
	<g>
		<path style="fill:#F15A29;" d="M351.358,135.347c0,0-15.987,12.585-28.572,31.973c-12.585,19.388-11.905,34.694-11.905,34.694
			s16.017-6.455,45.633-19.548C349.997,165.96,351.358,135.347,351.358,135.347z"/>
		<linearGradient id="SVGID_2_" gradientUnits="userSpaceOnUse" x1="329.6759" y1="114.831" x2="333.0928" y2="180.6051">
			<stop  offset="0.1164" style="stop-color:#F15A29"/>
			<stop  offset="0.8985" style="stop-color:#BE1E2D"/>
		</linearGradient>
		<path style="fill:url(#SVGID_2_);" d="M351.358,135.347c0,0-15.987,12.585-28.572,31.973
			c-12.585,19.388-11.905,34.694-11.905,34.694s16.017-6.455,45.633-19.548C349.997,165.96,351.358,135.347,351.358,135.347z"/>
	</g>
</g>
<g id="_x2B_Hair_2">
	<g>
		<path style="fill:#F15A29;" d="M397.613,163.22c-2.319-14.293-4.758-37.397-4.758-37.397l-2.721-19.728
			c0,0-26.531,15.306-31.293,19.728c-3.009,2.794-14.626,40.817-8.504,60.885c4.643-2.053,15.786-8.504,21.089-10.885
			C381.374,171.359,390.081,167.115,397.613,163.22z"/>
		<linearGradient id="SVGID_3_" gradientUnits="userSpaceOnUse" x1="370.1796" y1="112.7269" x2="373.5964" y2="178.501">
			<stop  offset="0.1164" style="stop-color:#F15A29"/>
			<stop  offset="0.8985" style="stop-color:#BE1E2D"/>
		</linearGradient>
		<path style="fill:url(#SVGID_3_);" d="M397.613,163.22c-2.319-14.293-4.758-37.397-4.758-37.397l-2.721-19.728
			c0,0-26.531,15.306-31.293,19.728c-3.009,2.794-14.626,40.817-8.504,60.885c4.643-2.053,15.786-8.504,21.089-10.885
			C381.374,171.359,390.081,167.115,397.613,163.22z"/>
	</g>
</g>
<g id="_x2B_hair_1">
	<g>
		<g>
			<path style="fill:#F15A29;" d="M433.097,87.121l-36.16,17.613c0,0-19.044,40.155-4.422,63.266
				c25.175-13.018,42.178-26.871,42.178-26.871s-5.439-7.881-5.439-26.246C429.253,101.472,433.097,87.121,433.097,87.121z"/>
			<linearGradient id="SVGID_4_" gradientUnits="userSpaceOnUse" x1="409.8281" y1="113.1947" x2="413.0919" y2="176.0231">
				<stop  offset="0.1164" style="stop-color:#F15A29"/>
				<stop  offset="0.8985" style="stop-color:#BE1E2D"/>
			</linearGradient>
			<path style="fill:url(#SVGID_4_);" d="M433.097,87.121l-36.16,17.613c0,0-19.044,40.155-4.422,63.266
				c25.175-13.018,42.178-26.871,42.178-26.871s-5.439-7.881-5.439-26.246C429.253,101.472,433.097,87.121,433.097,87.121z"/>
		</g>
		<g>
			<path style="fill:#F15A29;" d="M432.575,89.238c-8.461,18.832-15.055,39.861-8.332,59.615c6.654-4.632,10.449-7.724,10.449-7.724
				s-5.439-7.881-5.439-26.246C429.253,104.57,431.525,93.709,432.575,89.238z"/>
			<linearGradient id="SVGID_5_" gradientUnits="userSpaceOnUse" x1="427.8903" y1="144.5491" x2="429.1198" y2="90.0412">
				<stop  offset="0.1164" style="stop-color:#F15A29"/>
				<stop  offset="0.8985" style="stop-color:#BE1E2D"/>
			</linearGradient>
			<path style="fill:url(#SVGID_5_);" d="M432.575,89.238c-8.461,18.832-15.055,39.861-8.332,59.615
				c6.654-4.632,10.449-7.724,10.449-7.724s-5.439-7.881-5.439-26.246C429.253,104.57,431.525,93.709,432.575,89.238z"/>
		</g>
	</g>
</g>
<g id="_x2B_Left_hand">
	<linearGradient id="SVGID_6_" gradientUnits="userSpaceOnUse" x1="553.2321" y1="408.732" x2="511.5852" y2="371.469">
		<stop  offset="0.1164" style="stop-color:#F15A29"/>
		<stop  offset="0.8985" style="stop-color:#BE1E2D"/>
	</linearGradient>
	<path style="fill:url(#SVGID_6_);" d="M524.828,362.469c-18.539-1.747-41.558,8.376-41.558,8.376s19.713,9.159,32.83,25.104
		c18.677,22.704,16.077,28.363,16.077,28.363l7.59-5.502c1.457-6.849-9.99-21.223-9.99-21.223s2.812-0.166,9.956,5.786
		c6.287,5.238,9.637,14.817,9.637,14.817c0.125-0.14,11.627-9.437,13.64-20.369c1.939-10.535-3.533-17.894-3.533-17.894
		S543.367,364.217,524.828,362.469z"/>
	<linearGradient id="SVGID_7_" gradientUnits="userSpaceOnUse" x1="501.0542" y1="381.0085" x2="535.3947" y2="424.8474">
		<stop  offset="0.1164" style="stop-color:#F15A29"/>
		<stop  offset="0.8985" style="stop-color:#BE1E2D"/>
	</linearGradient>
	<path style="fill:url(#SVGID_7_);" d="M486.769,372.643c4.974,1.511,9.631,4.51,13.819,7.199
		c5.097,3.273,9.918,6.958,14.365,11.046c9.135,8.397,17.615,19.06,19.79,31.566l-2.566,1.86c0,0,2.6-5.659-16.077-28.363
		C506.371,384.123,493.02,376.034,486.769,372.643z"/>
	<linearGradient id="SVGID_8_" gradientUnits="userSpaceOnUse" x1="532.2022" y1="396.13" x2="551.199" y2="416.5881">
		<stop  offset="0.1164" style="stop-color:#F15A29"/>
		<stop  offset="0.8985" style="stop-color:#BE1E2D"/>
	</linearGradient>
	<path style="fill:url(#SVGID_8_);" d="M529.777,397.588c0,0,0.482,0.607,1.23,1.62c-1.318-1.073-2.628-2.155-3.852-3.332
		c10.925,0.604,21.051,9.936,25.138,19.621c-1.681,1.667-2.883,2.649-2.923,2.694c0,0-3.35-9.579-9.637-14.817
		C532.588,397.422,529.777,397.588,529.777,397.588z"/>
</g>
<g id="Left_eye">
	<g id="normal">
		<path id="Left_eyeball" style="fill:#FFFFFF;" d="M467.895,265.184c-0.197,23.514,9.287,32.55,24.016,32.849
			c14.729,0.299,25.097-6.848,27.772-30.067c2.564-22.257-10.61-49.463-22.337-50.643
			C481.021,215.68,468.092,241.67,467.895,265.184z"/>
		<g id="_x2B__left_pupil">
			<circle style="fill:#268EFF;" cx="483.96" cy="261.875" r="9.202"/>
			<circle style="fill:#FFFFFF;" cx="490.38" cy="256.772" r="5.149"/>
		</g>
	</g>
	<path id="Left_eyelid_top" style="display:none;fill:#F17C37;" d="M513.523,233.082c0.108,0.095-0.818-1.903-0.713-1.805
		c-4.378-8.361-10.033-14.242-15.395-14.782c-9.693-0.976-18.207,7.602-23.677,19.667
		C485.722,225.478,509.246,229.302,513.523,233.082z"/>
	<path id="Left_eyelid_bottom" style="display:none;fill:#F17C37;" d="M500.305,293.296c-9.008,1.032-17.841,0.85-26.126-1.985
		c4.262,5.109,10.332,7.402,17.69,7.552c8.387,0.17,15.385-2.029,20.411-8.119C508.316,292.261,503.772,292.898,500.305,293.296z"/>
	<g id="Left_blink" style="display:none;">
		<path id="eye_2_" style="display:inline;fill:#F17C37;" d="M467.702,265.24c-0.199,23.689,9.355,32.791,24.194,33.093
			s25.283-6.899,27.978-30.29c2.583-22.422-10.689-49.83-22.503-51.019C480.925,215.368,467.9,241.552,467.702,265.24z"/>
		<g style="display:inline;">
			<g>
				<path style="fill:#231F20;" d="M464.005,271.355c18.769,6.02,40.034,4.547,58.88-0.238c1.558-0.396,0.898-2.807-0.665-2.411
					c-18.405,4.673-39.212,6.119-57.551,0.238C463.134,268.452,462.477,270.865,464.005,271.355L464.005,271.355z"/>
			</g>
		</g>
	</g>
</g>
<g id="Right_eye_1_">
	<g id="Normal">
		<path id="Right_eyeball" style="fill:#FFFFFF;" d="M434.128,263.357c0,26.385-11.988,37.533-31.116,37.533
			c-19.129,0-32.938-9.483-36.159-35.593c-3.087-25.028,14.74-54.022,29.98-55.079C418.048,208.747,434.128,236.972,434.128,263.357
			z"/>
		<g id="_x2B_Right_pupil">
			<circle style="fill:#268EFF;" cx="411.411" cy="261.052" r="12.84"/>
			<circle style="fill:#FFFFFF;" cx="420.946" cy="253.809" r="5.597"/>
		</g>
	</g>
	<path id="Right_eyelid_top" style="display:none;fill:#F17C37;" d="M388.204,231.296c12.436-2.152,26.126-2.178,38.546,0.819
		c-6.695-13.309-17.412-22.763-29.917-21.896c-9.451,0.656-19.894,12.06-25.729,26.596
		C376.396,234.002,382.459,232.29,388.204,231.296z"/>
	<path id="Right_eyelid_bottom" style="display:none;fill:#F17C37;" d="M375.852,290.205c6.387,6.561,15.027,11.469,25.289,11.469
		c12.705,0,17.792-1.486,25.41-10.418C420.247,298.086,392.993,295.386,375.852,290.205z"/>
	<g id="Right_blink" style="display:none;">
		<path id="Eye_3_" style="display:inline;fill:#F17C37;" d="M435.521,262.831c-0.115,26.384-13.133,38.788-32.261,38.788
			c-19.129,0-34.213-10.461-37.433-36.571c-3.087-25.028,15.767-53.771,31.006-54.828
			C418.048,208.747,435.645,234.509,435.521,262.831z"/>
		<g style="display:inline;">
			<g>
				<path style="fill:#231F20;" d="M364.088,269.728c10.496,3.371,22.075,4.222,33.017,4.752
					c13.674,0.662,27.739,0.338,41.074-3.033c1.559-0.394,0.898-2.806-0.665-2.411c-13.118,3.316-26.956,3.595-40.41,2.944
					c-10.749-0.52-22.042-1.351-32.352-4.662C363.217,266.824,362.56,269.237,364.088,269.728L364.088,269.728z"/>
			</g>
		</g>
	</g>
</g>
<g id="head">
	<g>
		<path style="fill:#ED9D3B;" d="M543.151,280.285c-6.201-89.199-51.673-144.823-120.234-139.473C318,149,254,265.5,257.292,323.625
			C259.999,371.429,316.5,418.5,409.5,427C499.624,435.237,548.845,362.197,543.151,280.285z M403.012,300.89
			c-19.129,0-32.938-9.483-36.159-35.593c-3.087-25.028,14.74-54.022,29.98-55.079c21.215-1.471,37.295,26.754,37.295,53.138
			C434.128,289.742,422.141,300.89,403.012,300.89z M519.682,267.966c-2.675,23.219-13.043,30.366-27.772,30.067
			c-14.729-0.299-24.213-9.335-24.016-32.849c0.197-23.514,13.126-49.504,29.451-47.861
			C509.072,218.504,522.246,245.709,519.682,267.966z"/>
		<linearGradient id="SVGID_9_" gradientUnits="userSpaceOnUse" x1="421.5915" y1="153.3824" x2="385.8094" y2="415.784">
			<stop  offset="0.0934" style="stop-color:#F7BE52"/>
			<stop  offset="0.9932" style="stop-color:#EF6136"/>
		</linearGradient>
		<path style="fill:url(#SVGID_9_);" d="M543.151,280.285c-6.201-89.199-51.673-144.823-120.234-139.473
			C318,149,254,265.5,257.292,323.625C259.999,371.429,316.5,418.5,409.5,427C499.624,435.237,548.845,362.197,543.151,280.285z
			 M403.012,300.89c-19.129,0-32.938-9.483-36.159-35.593c-3.087-25.028,14.74-54.022,29.98-55.079
			c21.215-1.471,37.295,26.754,37.295,53.138C434.128,289.742,422.141,300.89,403.012,300.89z M519.682,267.966
			c-2.675,23.219-13.043,30.366-27.772,30.067c-14.729-0.299-24.213-9.335-24.016-32.849c0.197-23.514,13.126-49.504,29.451-47.861
			C509.072,218.504,522.246,245.709,519.682,267.966z"/>
	</g>
	<path style="fill:#FFD18C;" d="M298.521,318.452c-6.33-59.669,7.024-103.457,25.023-131.141
		c-2.183,2.885-45.906,34.957-49.12,105.654c-2.21,48.617,15.956,78.015,19.855,90.449c0.789,2.365,4.146,3.283,5.07,5.597
		c13.025,11.314,25.973,16.827,51.619,25.174C343.365,410.198,305.496,384.199,298.521,318.452z"/>
</g>
<g id="_x2B_Right_hand">
	<g id="normal_3_">
		<linearGradient id="SVGID_10_" gradientUnits="userSpaceOnUse" x1="290.3904" y1="384.6509" x2="293.8174" y2="450.6206">
			<stop  offset="0.1164" style="stop-color:#F15A29"/>
			<stop  offset="0.8985" style="stop-color:#BE1E2D"/>
		</linearGradient>
		<path style="fill:url(#SVGID_10_);" d="M275.561,384.168c10.526-15.512,33.041-26.571,33.041-26.571s-5.582,21.364-1.727,42.153
			c5.489,29.6,11.502,31.364,11.502,31.364l-9.086,2.203c-6.195-3.442-9.912-21.89-9.912-21.89s-1.927,2.065-1.927,11.564
			c0,8.36,5.216,17.342,5.216,17.342c-0.188,0.003-14.695,2.702-24.383-3.034c-9.336-5.528-11.488-14.672-11.488-14.672
			S265.035,399.679,275.561,384.168z"/>
		<linearGradient id="SVGID_11_" gradientUnits="userSpaceOnUse" x1="312.6221" y1="430.775" x2="306.3721" y2="363.775">
			<stop  offset="0.1164" style="stop-color:#F15A29"/>
			<stop  offset="0.8985" style="stop-color:#BE1E2D"/>
		</linearGradient>
		<path style="fill:url(#SVGID_11_);" d="M307.743,361.504c-2.023,4.857-2.701,10.461-3.315,15.496
			c-0.748,6.128-1.003,12.317-0.709,18.485c0.604,12.671,3.369,26.347,11.586,36.373l3.072-0.745c0,0-6.013-1.763-11.502-31.364
			C304.016,384.331,306.347,368.604,307.743,361.504z"/>
		<linearGradient id="SVGID_12_" gradientUnits="userSpaceOnUse" x1="299.2769" y1="441.9987" x2="297.7769" y2="411.9987">
			<stop  offset="0.1164" style="stop-color:#F15A29"/>
			<stop  offset="0.8985" style="stop-color:#BE1E2D"/>
		</linearGradient>
		<path style="fill:url(#SVGID_12_);" d="M299.378,411.427c0,0,0.158,0.778,0.457,2.033c0.019-1.736,0.027-3.472-0.094-5.204
			c-6.53,8.857-5.842,22.918-1.016,32.542c2.357-0.188,3.881-0.464,3.941-0.465c0,0-5.216-8.982-5.216-17.342
			C297.451,413.492,299.378,411.427,299.378,411.427z"/>
	</g>


</g>
<g id="Mouth">
	<g id="Smile_1_" style="display:none;">
		
			<path style="display:inline;fill:#FFFFFF;stroke:#000000;stroke-width:3;stroke-linecap:round;stroke-linejoin:round;stroke-miterlimit:10;" d="
			M372.504,318.362c0,0,38.17,16.643,63.352,19.582c25.182,2.94,54.554-1.747,54.554-1.747l-10.612,3.91l-5.865,18.153l-9.775,1.396
			c0,0-4.085,17.626-5.585,18.991c-5.995,5.454-28.289,5.673-39.053,2.171C385.847,369.861,372.504,318.362,372.504,318.362z"/>
		<g style="display:inline;">
			<g>
				<path d="M369.388,323.17c2.11-3.422,5.055-6.355,8.578-8.308c2.815-1.56,0.296-5.88-2.524-4.317
					c-4.255,2.359-7.827,5.974-10.372,10.101C363.377,323.393,367.7,325.907,369.388,323.17L369.388,323.17z"/>
			</g>
		</g>
		
			<path style="display:inline;fill:none;stroke:#000000;stroke-width:2;stroke-linecap:round;stroke-linejoin:round;stroke-miterlimit:10;" d="
			M376.745,328.937c0,0,17.541,20.985,51.333,27.408c25.635,4.873,37.189,2.777,37.189,2.777"/>
	</g>
	
		<path id="Neutral" style="fill:none;stroke:#000000;stroke-width:5;stroke-linecap:round;stroke-linejoin:round;stroke-miterlimit:10;" d="
		M375.897,330.275c0,0,17.445,24.318,64.657,23.41c28.984-0.557,34.558-10.033,34.558-10.033"/>
	<linearGradient id="W-Oo_1_" gradientUnits="userSpaceOnUse" x1="456.7174" y1="363.7177" x2="476.7833" y2="363.7177">
		<stop  offset="0" style="stop-color:#000000"/>
		<stop  offset="0.8985" style="stop-color:#5D1E2D"/>
	</linearGradient>
	
		<ellipse id="W-Oo" style="display:none;fill:url(#W-Oo_1_);stroke:#000000;stroke-width:3;stroke-linecap:round;stroke-linejoin:round;stroke-miterlimit:10;" cx="466.75" cy="363.718" rx="10.033" ry="20.623"/>
	<g id="Surprised" style="display:none;">
		<linearGradient id="SVGID_23_" gradientUnits="userSpaceOnUse" x1="431.4097" y1="337.0649" x2="426.5383" y2="393.0857">
			<stop  offset="0" style="stop-color:#000000"/>
			<stop  offset="0.8985" style="stop-color:#5D1E2D"/>
		</linearGradient>
		
			<path style="display:inline;fill:url(#SVGID_23_);stroke:#000000;stroke-width:3;stroke-linecap:round;stroke-linejoin:round;stroke-miterlimit:10;" d="
			M477.898,366.505c0,14.776-20.846,21.181-47.935,21.181c-27.089,0-50.165-6.405-50.165-21.181s23.075-32.328,50.165-32.328
			C457.052,334.176,477.898,351.728,477.898,366.505z"/>
		
			<path style="display:inline;fill:#BE1E2D;stroke:#000000;stroke-width:3;stroke-linecap:round;stroke-linejoin:round;stroke-miterlimit:10;" d="
			M433.788,361.208c-18.993,1.297-10.032,13.99-10.468,13.476c-9.485-11.19-35.926-19.486-40.754-0.125
			c6.892,9.076,25.87,13.126,47.397,13.126c15.703,0,29.297-2.157,37.96-6.844C463.102,374.905,454.938,359.764,433.788,361.208z"/>
		
			<path style="display:inline;fill:#FFFFFF;stroke:#000000;stroke-width:3;stroke-linecap:round;stroke-linejoin:round;stroke-miterlimit:10;" d="
			M461.922,343.324c-8.394-5.438-19.513-9.148-31.959-9.148s-24.036,3.71-32.938,9.148H461.922z"/>
	</g>
	<g id="Ah" style="display:none;">
		<linearGradient id="SVGID_24_" gradientUnits="userSpaceOnUse" x1="428.6592" y1="346.6093" x2="422.795" y2="387.1256">
			<stop  offset="0" style="stop-color:#000000"/>
			<stop  offset="0.8985" style="stop-color:#5D1E2D"/>
		</linearGradient>
		
			<path style="display:inline;fill:url(#SVGID_24_);stroke:#000000;stroke-width:3;stroke-linecap:round;stroke-linejoin:round;stroke-miterlimit:10;" d="
			M372.504,318.362c0,0,38.17,16.643,63.352,19.582c25.182,2.94,54.554-1.747,54.554-1.747l-10.612,3.91l-5.576,15.819l-4.891,2.223
			c0,0-10.95,29.318-12.451,30.683c-5.995,5.454-28.591,3.28-39.354-0.222C383.853,377.654,372.504,318.362,372.504,318.362z"/>
		<g style="display:inline;">
			<g>
				<path d="M369.388,323.17c2.11-3.422,5.055-6.355,8.578-8.308c2.815-1.56,0.296-5.88-2.524-4.317
					c-4.255,2.359-7.827,5.974-10.372,10.101C363.377,323.393,367.7,325.907,369.388,323.17L369.388,323.17z"/>
			</g>
		</g>
		
			<path style="display:inline;fill:#FFFFFF;stroke:#000000;stroke-width:3;stroke-linecap:round;stroke-linejoin:round;stroke-miterlimit:10;" d="
			M372.504,318.362c0,0,3.445,12.218,7.224,20c3.78,7.782,30.46,13.785,58.252,16.898c27.792,3.113,36.241,0.667,36.241,0.667
			l5.558-17.787c0,0-15.564,2.001-44.69-1.112C406.809,334.006,372.504,318.362,372.504,318.362z"/>
		
			<path style="display:inline;fill:#BE1E2D;stroke:#000000;stroke-width:3;stroke-linecap:round;stroke-linejoin:round;stroke-miterlimit:10;" d="
			M402.196,371.824c9.772-11.45,22.083-1.536,26.434,2.902c-1.469-1.824-0.612-4.766,1.276-6.152s4.478-1.838,6.742-1.24
			c23.345,6.158,17.993,23.094,16.674,23.723c-7.426,3.543-29.126,2.446-41.355-4.891
			C407.952,383.756,398.302,376.387,402.196,371.824z"/>
	</g>
	<g id="D" style="display:none;">
		
			<path style="display:inline;fill:#FFFFFF;stroke:#000000;stroke-width:3;stroke-linecap:round;stroke-linejoin:round;stroke-miterlimit:10;" d="
			M380.715,335.798c0,0,26.944,1.538,51.862,2.936c26.176,1.468,47.219,1.374,47.219,1.374s-8.078,29.939-18.842,39.724
			c-5.997,5.452-30.672,4.489-41.435,0.986C385.847,369.861,380.715,335.798,380.715,335.798z"/>
		<g style="display:inline;">
			<g>
				<path d="M377.981,340.729c2.198-3.489,5.813-5.971,9.378-7.91c2.828-1.538,0.307-5.857-2.524-4.317
					c-4.329,2.355-8.514,5.486-11.172,9.704C371.944,340.936,376.268,343.448,377.981,340.729L377.981,340.729z"/>
			</g>
		</g>
		
			<path style="display:inline;fill:none;stroke:#000000;stroke-width:2;stroke-linecap:round;stroke-linejoin:round;stroke-miterlimit:10;" d="
			M383.896,344.115c0,0,8.493,6.035,42.285,12.458c25.635,4.873,45.783,3.198,45.783,3.198"/>
	</g>
	<g id="Ee" style="display:none;">
		<linearGradient id="SVGID_25_" gradientUnits="userSpaceOnUse" x1="432.2895" y1="358.6456" x2="434.5123" y2="386.4313">
			<stop  offset="0" style="stop-color:#000000"/>
			<stop  offset="0.8985" style="stop-color:#5D1E2D"/>
		</linearGradient>
		
			<path style="display:inline;fill:url(#SVGID_25_);stroke:#000000;stroke-width:3.3704;stroke-linecap:round;stroke-linejoin:round;stroke-miterlimit:10;" d="
			M375.271,351.708c9.987,17.92,28.235,28.245,55.475,29.168c25.018,0.848,36.859,0.942,58.052-21.663
			C451.529,362.13,411.03,361.593,375.271,351.708z"/>
		
			<path style="display:inline;fill:#FFFFFF;stroke:#000000;stroke-width:3.3704;stroke-linecap:round;stroke-linejoin:round;stroke-miterlimit:10;" d="
			M428.233,339.731c-31.353-2.862-66.319-13.559-66.319-13.559s7.822,16.755,13.357,25.535c30.01,7.226,83.354,11.485,113.851,5.723
			c4.653-4.787,6.069-10.258,7.788-13.685c1.039-2.071,8.429-2.245,8.429-2.245S465.371,343.121,428.233,339.731z"/>
		<g style="display:inline;">
			<g>
				<path d="M356.826,331.99c3.198-4.027,7.888-6.815,12.548-8.846c3.306-1.44,0.449-6.281-2.835-4.85
					c-5.036,2.194-10.23,5.373-13.685,9.724C350.628,330.82,354.577,334.821,356.826,331.99L356.826,331.99z"/>
			</g>
		</g>
		
			<path style="display:inline;fill:#BE1E2D;stroke:#000000;stroke-width:3.3704;stroke-linecap:round;stroke-linejoin:round;stroke-miterlimit:10;" d="
			M445.344,368.552c4.204,0.991,9.682,3.744,11.495,7.664c-22.409,10.405-52.35-1.604-52.35-1.604S422.27,363.113,445.344,368.552z"
			/>
	</g>
	<g id="F" style="display:none;">
		<linearGradient id="SVGID_26_" gradientUnits="userSpaceOnUse" x1="437.2621" y1="359.4395" x2="438.5937" y2="376.0849">
			<stop  offset="0" style="stop-color:#000000"/>
			<stop  offset="0.8985" style="stop-color:#5D1E2D"/>
		</linearGradient>
		
			<path style="display:inline;fill:url(#SVGID_26_);stroke:#000000;stroke-width:3.3704;stroke-linecap:round;stroke-linejoin:round;stroke-miterlimit:10;" d="
			M406.936,372.798c14.867-9.112,66.382-11.014,74.169-3.404c1.266-0.823-3.02-2.378-2.39-3.311
			c1.891-2.796,11.51-0.48,13.748-4.956c-37.27,2.917-74.708,5.729-110.467-4.156c2.5,6.25,25.522,9.44,35.655,10.786
			C420.262,368.105,406.729,372.792,406.936,372.798z"/>
		
			<path style="display:inline;fill:#FFFFFF;stroke:#000000;stroke-width:3.3704;stroke-linecap:round;stroke-linejoin:round;stroke-miterlimit:10;" d="
			M395.5,346c0,0-19.258-0.858-13.023,11.132c30.01,7.226,78.851,9.599,109.348,3.837c3.997-5.276-2.925-12.218-34.825-12.218
			S395.5,346,395.5,346z"/>
	</g>
	<g id="L" style="display:none;">
		<linearGradient id="SVGID_27_" gradientUnits="userSpaceOnUse" x1="428.7442" y1="345.4045" x2="423.8101" y2="379.4951">
			<stop  offset="0" style="stop-color:#000000"/>
			<stop  offset="0.8985" style="stop-color:#5D1E2D"/>
		</linearGradient>
		
			<path style="display:inline;fill:url(#SVGID_27_);stroke:#000000;stroke-width:2.7907;stroke-linecap:round;stroke-linejoin:round;stroke-miterlimit:10;" d="
			M379.672,324.905c0,0,31.144,13.641,52.704,15.386c22.424,1.815,49.74-4.089,49.74-4.089l-10.019,4.363l-2.789,14.878
			l-4.491,1.925c0,0-4.616,17.926-10.482,22.133c-7.232,5.185-27.18,4.35-36.388,1.052
			C390.095,370.576,379.672,324.905,379.672,324.905z"/>
		<g style="display:inline;">
			<g>
				<path d="M373.226,332.347c2.222-3.992,7.499-6.416,11.17-8.884c2.472-1.661,0.146-5.692-2.348-4.016
					c-4.368,2.935-10.188,5.79-12.839,10.552C367.753,332.618,371.769,334.966,373.226,332.347L373.226,332.347z"/>
			</g>
		</g>
		
			<path style="display:inline;fill:#FFFFFF;stroke:#000000;stroke-width:2.7907;stroke-linecap:round;stroke-linejoin:round;stroke-miterlimit:10;" d="
			M379.672,324.905c0,0,2.74,11.003,5.762,17.98c3.039,7.017,24.977,11.772,48.802,13.925c24.882,2.248,35.499-1.581,35.499-1.581
			l4.278-16.469c0,0-15.357,1.934-41.343,0.131C408.541,337.216,379.672,324.905,379.672,324.905z"/>
		
			<path style="display:inline;fill:#BE1E2D;stroke:#000000;stroke-width:2.7907;stroke-linecap:round;stroke-linejoin:round;stroke-miterlimit:10;" d="
			M437.867,360.362c20.633-0.195,11.651,20.858,10.466,21.472c-6.623,3.429-23.302,0.693-32.989-2.759
			c-2.302-0.82,6.538,2.698,13.112-7.591C431.881,366.123,430.722,360.429,437.867,360.362z"/>
	</g>
	<g id="M" style="display:none;">
		<g style="display:inline;">
			<path d="M421.712,355.395c19.495-0.513,38.99-1.026,58.485-1.539c3.211-0.084,3.224-5.085,0-5
				c-19.495,0.513-38.99,1.026-58.485,1.539C418.501,350.479,418.488,355.48,421.712,355.395L421.712,355.395z"/>
		</g>
	</g>
	<g id="Oh" style="display:none;">
		<linearGradient id="SVGID_28_" gradientUnits="userSpaceOnUse" x1="452.9477" y1="344.2606" x2="451.8192" y2="395.0403">
			<stop  offset="0" style="stop-color:#000000"/>
			<stop  offset="0.8985" style="stop-color:#5D1E2D"/>
		</linearGradient>
		
			<path style="display:inline;fill:url(#SVGID_28_);stroke:#000000;stroke-width:2.4998;stroke-linecap:round;stroke-linejoin:round;stroke-miterlimit:10;" d="
			M475.457,367.635c-1.29,15.668-5.435,29.736-22.124,28.662c-14.134-0.91-24.169-12.9-24.169-28.621s12.097-28.04,26.242-28.749
			C475.24,337.932,476.974,349.206,475.457,367.635z"/>
		
			<path style="display:inline;fill:#FFFFFF;stroke:#000000;stroke-width:2.4998;stroke-linecap:round;stroke-linejoin:round;stroke-miterlimit:10;" d="
			M474.277,348.122c-1.422-5.637-7.832-9.106-15.298-9.106s-19.73,4.119-24.5,11.491L474.277,348.122z"/>
	</g>
	<linearGradient id="R_1_" gradientUnits="userSpaceOnUse" x1="452.6874" y1="346.4604" x2="451.9709" y2="378.7032">
		<stop  offset="0" style="stop-color:#000000"/>
		<stop  offset="0.8985" style="stop-color:#5D1E2D"/>
	</linearGradient>
	
		<path id="R" style="display:none;fill:url(#R_1_);stroke:#000000;stroke-width:2.4998;stroke-linecap:round;stroke-linejoin:round;stroke-miterlimit:10;" d="
		M469.281,360.656c0,10.562,8.203,17.331-14.755,18.709c-20.366,1.222-21.18-8.582-21.18-19.144s6.696-15.595,19.958-16.7
		C480.843,341.227,469.281,350.094,469.281,360.656z"/>
	<g id="S" style="display:none;">
		
			<path style="display:inline;fill:#FFFFFF;stroke:#000000;stroke-width:3.4218;stroke-linecap:round;stroke-linejoin:round;stroke-miterlimit:10;" d="
			M366.542,335.798c0,0,35.053,1.538,67.471,2.936c34.054,1.468,61.431,1.374,61.431,1.374s-7.583,28.426-23.274,38.014
			c-8.121,4.963-41.142,6.198-55.145,2.696C373.218,369.861,366.542,335.798,366.542,335.798z"/>
		<g style="display:inline;">
			<g>
				<path d="M362.193,341.484c3.082-3.75,7.692-6.225,12.109-8.073c3.336-1.396,1.871-6.917-1.516-5.499
					c-5.302,2.219-10.906,5.015-14.625,9.54C355.848,340.265,359.86,344.322,362.193,341.484L362.193,341.484z"/>
			</g>
		</g>
		
			<path style="display:inline;fill:none;stroke:#000000;stroke-width:2.2812;stroke-linecap:round;stroke-linejoin:round;stroke-miterlimit:10;" d="
			M370.679,344.115c0,0,11.049,6.035,55.011,12.458c33.35,4.873,61.298,1.79,61.298,1.79"/>
	</g>
	<g id="Uh" style="display:none;">
		<linearGradient id="SVGID_29_" gradientUnits="userSpaceOnUse" x1="452.789" y1="337.7439" x2="451.652" y2="388.9091">
			<stop  offset="0" style="stop-color:#000000"/>
			<stop  offset="0.8985" style="stop-color:#5D1E2D"/>
		</linearGradient>
		
			<path style="display:inline;fill:url(#SVGID_29_);stroke:#000000;stroke-width:3.9668;stroke-linecap:round;stroke-linejoin:round;stroke-miterlimit:10;" d="
			M479.12,360.27c0,13.51,8.46,23.11-7.35,27.47c-3.8,1.05-9.01,1.79-16.07,2.22c-9.56,0.57-16.41-0.38-21.3-2.46
			c-11.66-4.92-12.3-16.12-12.3-27.92c0-16.76,10.62-24.75,31.67-26.5C497.46,329.44,479.12,343.51,479.12,360.27z"/>
		
			<path style="display:inline;fill:#BE1E2D;stroke:#000000;stroke-width:3.9668;stroke-linecap:round;stroke-linejoin:round;stroke-miterlimit:10;" d="
			M472.19,383.77c0,1.36-0.14,2.69-0.42,3.97c-3.8,1.05-9.01,1.79-16.07,2.22c-9.56,0.57-16.41-0.38-21.3-2.46
			c-0.25-1.21-0.37-2.45-0.37-3.73c0-10.54,8.54-19.08,19.08-19.08C463.65,364.69,472.19,373.23,472.19,383.77z"/>
	</g>
</g>
<g id="_x2B_Left_Eyebrow">
	<g id="sad_1_" style="display:none;">
		<g style="display:inline;">
			<path d="M474.584,188.242c2.62,6.272,7.638,8.907,14.236,9.47c4.913,0.419,15.599-2.087,18.772,2.801
				c1.746,2.689,6.076,0.186,4.317-2.524c-7.244-11.16-27.192,1.64-32.504-11.076C478.183,183.987,473.343,185.271,474.584,188.242
				L474.584,188.242z"/>
		</g>
	</g>
	<g id="angry" style="display:none;">
		<g style="display:inline;">
			<path d="M470.256,206.998c1.104,7.15,6.087,6.997,11.391,3.959c9.477-5.427,17.924-8.618,28.424-3.132
				c2.849,1.488,5.38-2.825,2.524-4.317c-8.414-4.396-17.172-4.926-25.86-1.024c-3.048,1.369-5.777,3.248-8.725,4.792
				c-2.712,1.42-2.436,1.607-2.932-1.607C474.588,202.499,469.769,203.845,470.256,206.998L470.256,206.998z"/>
		</g>
	</g>
	<g id="angry_2" style="display:none;">
		<g style="display:inline;">
			<path d="M470.256,206.998c1.104,7.15,6.087,6.997,11.391,3.959c9.477-5.427,17.924-8.618,28.424-3.132
				c2.849,1.488,5.38-2.825,2.524-4.317c-8.414-4.396-17.172-4.926-25.86-1.024c-3.048,1.369-5.777,3.248-8.725,4.792
				c-2.712,1.42-2.436,1.607-2.932-1.607C474.588,202.499,469.769,203.845,470.256,206.998L470.256,206.998z"/>
		</g>
	</g>
	<g id="normal2" style="display:none;">
		<g style="display:inline;">
			<path d="M477.659,189.988c9.028-2.653,24.91,2.474,29.932,10.524c1.699,2.724,6.027,0.217,4.317-2.524
				c-6.234-9.993-24.336-16.126-35.579-12.822C473.249,186.072,474.56,190.898,477.659,189.988L477.659,189.988z"/>
		</g>
	</g>
	<g id="normal_2_">
		<g>
			<path d="M477.659,189.988c9.028-2.653,24.91,2.474,29.932,10.524c1.699,2.724,6.027,0.217,4.317-2.524
				c-6.234-9.993-24.336-16.126-35.579-12.822C473.249,186.072,474.56,190.898,477.659,189.988L477.659,189.988z"/>
		</g>
	</g>
</g>
<g id="_x2B_Right_Eyebrow">
	<g id="sad" style="display:none;">
		<g style="display:inline;">
			<path d="M374.431,204.405c6.411-3.961,13.328-6.763,20.862-7.572c5.062-0.543,10.097-0.153,15.167-0.073
				c7.661,0.121,13.349-2.038,15.549-9.928c0.866-3.104-3.957-4.429-4.821-1.329c-2.344,8.405-11.1,6.123-17.987,6.03
				c-11.292-0.153-21.659,2.603-31.293,8.555C369.175,201.776,371.683,206.103,374.431,204.405L374.431,204.405z"/>
		</g>
	</g>
	<g id="angry_1_" style="display:none;">
		<g style="display:inline;">
			<path d="M374.431,204.405c6.98-4.953,14.993-8.191,23.646-6.53c6.089,1.169,11.454,4.335,16.54,7.741
				c5.772,3.866,14.906,10.624,17.794,0.048c0.849-3.108-3.974-4.435-4.821-1.329c-0.976,3.576-2.734,2.016-5.356,0.381
				c-4.253-2.652-8.208-5.717-12.694-7.997c-12.83-6.522-25.973-4.904-37.632,3.369
				C369.305,201.935,371.799,206.273,374.431,204.405L374.431,204.405z"/>
		</g>
	</g>
	<g id="angry2" style="display:none;">
		<g style="display:inline;">
			<path d="M374.431,204.405c6.98-4.953,14.993-8.191,23.646-6.53c6.089,1.169,11.454,4.335,16.54,7.741
				c5.772,3.866,14.906,10.624,17.794,0.048c0.849-3.108-3.974-4.435-4.821-1.329c-0.976,3.576-2.734,2.016-5.356,0.381
				c-4.253-2.652-8.208-5.717-12.694-7.997c-12.83-6.522-25.973-4.904-37.632,3.369
				C369.305,201.935,371.799,206.273,374.431,204.405L374.431,204.405z"/>
		</g>
	</g>
	<g id="normal2_1_" style="display:none;">
		<g style="display:inline;">
			<path d="M374.937,204.014c11.181-14.256,30.661-19.237,47.996-15.436c3.136,0.688,4.476-4.131,1.329-4.821
				c-18.935-4.152-40.586,1.07-52.861,16.722C369.438,202.983,372.952,206.545,374.937,204.014L374.937,204.014z"/>
		</g>
	</g>
	<g id="normal_1_">
		<g>
			<path d="M374.937,204.014c11.181-14.256,30.661-19.237,47.996-15.436c3.136,0.688,4.476-4.131,1.329-4.821
				c-18.935-4.152-40.586,1.07-52.861,16.722C369.438,202.983,372.952,206.545,374.937,204.014L374.937,204.014z"/>
		</g>
	</g>
</g>
<g id="Bubbles">
	<linearGradient id="_x31__13_" gradientUnits="userSpaceOnUse" x1="491.4678" y1="338.2902" x2="486.1704" y2="340.5606">
		<stop  offset="0.1164" style="stop-color:#15FBFF"/>
		<stop  offset="0.9011" style="stop-color:#0096D4"/>
	</linearGradient>
	
		<circle id="_x31__1_" style="display:none;fill:url(#_x31__13_);fill-opacity:0.6;stroke:#FFFFFF;stroke-width:0.6803;stroke-miterlimit:10;" cx="490.072" cy="338.889" r="2.953"/>
	<g id="_x32__1_" style="display:none;">
		<linearGradient id="_x31__14_" gradientUnits="userSpaceOnUse" x1="506.7362" y1="318.6996" x2="492.7228" y2="324.7054">
			<stop  offset="0.1164" style="stop-color:#15FBFF"/>
			<stop  offset="0.9011" style="stop-color:#0096D4"/>
		</linearGradient>
		
			<circle id="_x31__2_" style="display:inline;fill:url(#_x31__14_);fill-opacity:0.6;stroke:#FFFFFF;stroke-miterlimit:10;" cx="503.043" cy="320.283" r="7.813"/>
		<linearGradient id="SVGID_30_" gradientUnits="userSpaceOnUse" x1="485.7904" y1="326.5137" x2="479.982" y2="329.003">
			<stop  offset="0.1164" style="stop-color:#15FBFF"/>
			<stop  offset="0.9011" style="stop-color:#0096D4"/>
		</linearGradient>
		
			<circle style="display:inline;fill:url(#SVGID_30_);fill-opacity:0.6;stroke:#FFFFFF;stroke-miterlimit:10;" cx="484.259" cy="327.17" r="3.238"/>
	</g>
	<g id="_x33__1_" style="display:none;">
		<linearGradient id="_x31__15_" gradientUnits="userSpaceOnUse" x1="499.5018" y1="293.2676" x2="482.0551" y2="300.7448">
			<stop  offset="0.1164" style="stop-color:#15FBFF"/>
			<stop  offset="0.9011" style="stop-color:#0096D4"/>
		</linearGradient>
		
			<circle id="_x31__3_" style="display:inline;fill:url(#_x31__15_);fill-opacity:0.6;stroke:#FFFFFF;stroke-width:1.245;stroke-miterlimit:10;" cx="494.903" cy="295.238" r="9.727"/>
		<linearGradient id="SVGID_31_" gradientUnits="userSpaceOnUse" x1="509.5634" y1="316.7725" x2="497.8886" y2="321.7759">
			<stop  offset="0.1164" style="stop-color:#15FBFF"/>
			<stop  offset="0.9011" style="stop-color:#0096D4"/>
		</linearGradient>
		
			<circle style="display:inline;fill:url(#SVGID_31_);fill-opacity:0.6;stroke:#FFFFFF;stroke-miterlimit:10;" cx="506.486" cy="318.091" r="6.509"/>
		<linearGradient id="SVGID_32_" gradientUnits="userSpaceOnUse" x1="493.6167" y1="329.9572" x2="487.8083" y2="332.4466">
			<stop  offset="0.1164" style="stop-color:#15FBFF"/>
			<stop  offset="0.9011" style="stop-color:#0096D4"/>
		</linearGradient>
		
			<circle style="display:inline;fill:url(#SVGID_32_);fill-opacity:0.6;stroke:#FFFFFF;stroke-miterlimit:10;" cx="492.086" cy="330.613" r="3.238"/>
	</g>
	<g id="_x34__1_" style="display:none;">
		<linearGradient id="_x31__16_" gradientUnits="userSpaceOnUse" x1="514.5283" y1="263.8406" x2="497.0816" y2="271.3177">
			<stop  offset="0.1164" style="stop-color:#15FBFF"/>
			<stop  offset="0.9011" style="stop-color:#0096D4"/>
		</linearGradient>
		
			<circle id="_x31__9_" style="display:inline;fill:url(#_x31__16_);fill-opacity:0.6;stroke:#FFFFFF;stroke-width:1.245;stroke-miterlimit:10;" cx="509.93" cy="265.811" r="9.727"/>
		<linearGradient id="SVGID_33_" gradientUnits="userSpaceOnUse" x1="524.7124" y1="296.2821" x2="509.0098" y2="303.0117">
			<stop  offset="0.1164" style="stop-color:#15FBFF"/>
			<stop  offset="0.9011" style="stop-color:#0096D4"/>
		</linearGradient>
		
			<circle style="display:inline;fill:url(#SVGID_33_);fill-opacity:0.6;stroke:#FFFFFF;stroke-miterlimit:10;" cx="520.574" cy="298.056" r="8.754"/>
		<linearGradient id="SVGID_34_" gradientUnits="userSpaceOnUse" x1="493.6167" y1="329.9572" x2="487.8083" y2="332.4466">
			<stop  offset="0.1164" style="stop-color:#15FBFF"/>
			<stop  offset="0.9011" style="stop-color:#0096D4"/>
		</linearGradient>
		
			<circle style="display:inline;fill:url(#SVGID_34_);fill-opacity:0.6;stroke:#FFFFFF;stroke-miterlimit:10;" cx="492.086" cy="330.613" r="3.238"/>
		<linearGradient id="SVGID_35_" gradientUnits="userSpaceOnUse" x1="499.2862" y1="312.6798" x2="487.4081" y2="317.7704">
			<stop  offset="0.1164" style="stop-color:#15FBFF"/>
			<stop  offset="0.9011" style="stop-color:#0096D4"/>
		</linearGradient>
		
			<circle style="display:inline;fill:url(#SVGID_35_);fill-opacity:0.6;stroke:#FFFFFF;stroke-miterlimit:10;" cx="496.155" cy="314.022" r="6.622"/>
	</g>
	<g id="_x35__1_" style="display:none;">
		<linearGradient id="_x31__17_" gradientUnits="userSpaceOnUse" x1="517.3458" y1="233.4745" x2="499.8991" y2="240.9516">
			<stop  offset="0.1164" style="stop-color:#15FBFF"/>
			<stop  offset="0.9011" style="stop-color:#0096D4"/>
		</linearGradient>
		
			<circle id="_x31__11_" style="display:inline;fill:url(#_x31__17_);fill-opacity:0.6;stroke:#FFFFFF;stroke-width:1.245;stroke-miterlimit:10;" cx="512.747" cy="235.445" r="9.727"/>
		<linearGradient id="SVGID_36_" gradientUnits="userSpaceOnUse" x1="521.895" y1="272.4901" x2="506.1924" y2="279.2197">
			<stop  offset="0.1164" style="stop-color:#15FBFF"/>
			<stop  offset="0.9011" style="stop-color:#0096D4"/>
		</linearGradient>
		
			<circle style="display:inline;fill:url(#SVGID_36_);fill-opacity:0.6;stroke:#FFFFFF;stroke-miterlimit:10;" cx="517.756" cy="274.264" r="8.754"/>
		<linearGradient id="SVGID_37_" gradientUnits="userSpaceOnUse" x1="496.4342" y1="313.0524" x2="490.6258" y2="315.5417">
			<stop  offset="0.1164" style="stop-color:#15FBFF"/>
			<stop  offset="0.9011" style="stop-color:#0096D4"/>
		</linearGradient>
		
			<circle style="display:inline;fill:url(#SVGID_37_);fill-opacity:0.6;stroke:#FFFFFF;stroke-miterlimit:10;" cx="494.903" cy="313.708" r="3.238"/>
		<linearGradient id="SVGID_38_" gradientUnits="userSpaceOnUse" x1="514.9389" y1="303.6013" x2="503.0608" y2="308.6919">
			<stop  offset="0.1164" style="stop-color:#15FBFF"/>
			<stop  offset="0.9011" style="stop-color:#0096D4"/>
		</linearGradient>
		
			<circle style="display:inline;fill:url(#SVGID_38_);fill-opacity:0.6;stroke:#FFFFFF;stroke-miterlimit:10;" cx="511.808" cy="304.943" r="6.622"/>
	</g>
	<g id="_x36__1_" style="display:none;">
		<linearGradient id="_x31__18_" gradientUnits="userSpaceOnUse" x1="502.3192" y1="204.9866" x2="484.8725" y2="212.4638">
			<stop  offset="0.1164" style="stop-color:#15FBFF"/>
			<stop  offset="0.9011" style="stop-color:#0096D4"/>
		</linearGradient>
		
			<circle id="_x31__6_" style="display:inline;fill:url(#_x31__18_);fill-opacity:0.6;stroke:#FFFFFF;stroke-width:1.245;stroke-miterlimit:10;" cx="497.721" cy="206.957" r="9.727"/>
		<linearGradient id="SVGID_39_" gradientUnits="userSpaceOnUse" x1="532.2257" y1="253.3938" x2="516.5231" y2="260.1235">
			<stop  offset="0.1164" style="stop-color:#15FBFF"/>
			<stop  offset="0.9011" style="stop-color:#0096D4"/>
		</linearGradient>
		
			<circle style="display:inline;fill:url(#SVGID_39_);fill-opacity:0.6;stroke:#FFFFFF;stroke-miterlimit:10;" cx="528.087" cy="255.168" r="8.754"/>
		<linearGradient id="SVGID_40_" gradientUnits="userSpaceOnUse" x1="516.4695" y1="303.0347" x2="510.6612" y2="305.524">
			<stop  offset="0.1164" style="stop-color:#15FBFF"/>
			<stop  offset="0.9011" style="stop-color:#0096D4"/>
		</linearGradient>
		
			<circle style="display:inline;fill:url(#SVGID_40_);fill-opacity:0.6;stroke:#FFFFFF;stroke-miterlimit:10;" cx="514.939" cy="303.691" r="3.238"/>
		<linearGradient id="SVGID_41_" gradientUnits="userSpaceOnUse" x1="508.0517" y1="285.1311" x2="496.1736" y2="290.2217">
			<stop  offset="0.1164" style="stop-color:#15FBFF"/>
			<stop  offset="0.9011" style="stop-color:#0096D4"/>
		</linearGradient>
		
			<circle style="display:inline;fill:url(#SVGID_41_);fill-opacity:0.6;stroke:#FFFFFF;stroke-miterlimit:10;" cx="504.921" cy="286.473" r="6.622"/>
	</g>
	<g id="_x37_" style="display:none;">
		<linearGradient id="SVGID_42_" gradientUnits="userSpaceOnUse" x1="518.7644" y1="220.8363" x2="503.0618" y2="227.566">
			<stop  offset="0.1164" style="stop-color:#15FBFF"/>
			<stop  offset="0.9011" style="stop-color:#0096D4"/>
		</linearGradient>
		
			<circle style="display:inline;fill:url(#SVGID_42_);fill-opacity:0.6;stroke:#FFFFFF;stroke-miterlimit:10;" cx="514.626" cy="222.61" r="8.754"/>
		<linearGradient id="SVGID_43_" gradientUnits="userSpaceOnUse" x1="515.5304" y1="287.382" x2="509.722" y2="289.8713">
			<stop  offset="0.1164" style="stop-color:#15FBFF"/>
			<stop  offset="0.9011" style="stop-color:#0096D4"/>
		</linearGradient>
		
			<circle style="display:inline;fill:url(#SVGID_43_);fill-opacity:0.6;stroke:#FFFFFF;stroke-miterlimit:10;" cx="513.999" cy="288.038" r="3.238"/>
		<linearGradient id="SVGID_44_" gradientUnits="userSpaceOnUse" x1="525.5827" y1="263.5305" x2="513.7046" y2="268.6211">
			<stop  offset="0.1164" style="stop-color:#15FBFF"/>
			<stop  offset="0.9011" style="stop-color:#0096D4"/>
		</linearGradient>
		
			<circle style="display:inline;fill:url(#SVGID_44_);fill-opacity:0.6;stroke:#FFFFFF;stroke-miterlimit:10;" cx="522.452" cy="264.872" r="6.622"/>
	</g>
	<g id="_x38_" style="display:none;">
		<linearGradient id="SVGID_45_" gradientUnits="userSpaceOnUse" x1="517.8253" y1="198.9226" x2="502.1227" y2="205.6523">
			<stop  offset="0.1164" style="stop-color:#15FBFF"/>
			<stop  offset="0.9011" style="stop-color:#0096D4"/>
		</linearGradient>
		
			<circle style="display:inline;fill:url(#SVGID_45_);fill-opacity:0.6;stroke:#FFFFFF;stroke-miterlimit:10;" cx="513.686" cy="200.696" r="8.754"/>
		<linearGradient id="SVGID_46_" gradientUnits="userSpaceOnUse" x1="522.8341" y1="238.0542" x2="507.1315" y2="244.7839">
			<stop  offset="0.1164" style="stop-color:#15FBFF"/>
			<stop  offset="0.9011" style="stop-color:#0096D4"/>
		</linearGradient>
		
			<circle style="display:inline;fill:url(#SVGID_46_);fill-opacity:0.6;stroke:#FFFFFF;stroke-miterlimit:10;" cx="518.695" cy="239.828" r="8.754"/>
	</g>
	<g id="_x39_" style="display:none;">
		<linearGradient id="SVGID_47_" gradientUnits="userSpaceOnUse" x1="536.6085" y1="170.7478" x2="520.9058" y2="177.4775">
			<stop  offset="0.1164" style="stop-color:#15FBFF"/>
			<stop  offset="0.9011" style="stop-color:#0096D4"/>
		</linearGradient>
		
			<circle style="display:inline;fill:url(#SVGID_47_);fill-opacity:0.6;stroke:#FFFFFF;stroke-miterlimit:10;" cx="532.47" cy="172.522" r="8.754"/>
		<linearGradient id="SVGID_48_" gradientUnits="userSpaceOnUse" x1="526.9038" y1="202.9923" x2="511.2012" y2="209.722">
			<stop  offset="0.1164" style="stop-color:#15FBFF"/>
			<stop  offset="0.9011" style="stop-color:#0096D4"/>
		</linearGradient>
		
			<circle style="display:inline;fill:url(#SVGID_48_);fill-opacity:0.6;stroke:#FFFFFF;stroke-miterlimit:10;" cx="522.765" cy="204.766" r="8.754"/>
	</g>
	<g id="_x31_0" style="display:none;">
		<linearGradient id="SVGID_49_" gradientUnits="userSpaceOnUse" x1="522.5211" y1="176.3828" x2="506.8185" y2="183.1124">
			<stop  offset="0.1164" style="stop-color:#15FBFF"/>
			<stop  offset="0.9011" style="stop-color:#0096D4"/>
		</linearGradient>
		
			<circle style="display:inline;fill:url(#SVGID_49_);fill-opacity:0.6;stroke:#FFFFFF;stroke-miterlimit:10;" cx="518.382" cy="178.157" r="8.754"/>
	</g>
</g>
</svg>
